Patient4_TMGait_0pt4_02_right_07_GRF.mot
version=1
nRows=26
nColumns=19
inDegrees=no
endheader
time	F1x	F1y	F1z	M1x	M1y	M1z	F2x	F2y	F2z	M2x	M2y	M2z	EC1x	EC1y	EC1z	EC2x	EC2y	EC2z
8.74	13.9181	783.1358	79.0909	-259.8799	-75.8348	842.5867	8.8651	4.5409	10.7367	-0.92992	-7.4851	14.3352	-0.0592	0.0182	-0.0073	-0.0462	0.0165	0.9585
8.7536	11.4005	771.6207	77.1697	-255.8514	-74.1707	826.1867	5.657	3.7558	7.2163	-0.40528	-4.8824	10.5107	-0.0592	0.0182	-0.0073	-0.0462	0.0165	0.9585
8.7673	9.6415	759.345	75.084	-251.4275	-72.0525	809.0107	2.9175	3.0352	4.1987	0.045959	-2.6457	7.1943	-0.0592	0.0182	-0.0073	-0.0462	0.0165	0.9585
8.7809	8.7624	747.3255	72.8996	-246.9939	-69.5302	792.3256	0.80418	2.4743	1.8705	0.40487	-0.90669	4.64	-0.0592	0.0182	-0.0073	-0.0462	0.0165	0.9585
8.7946	8.7184	736.5421	70.7271	-242.9361	-66.7392	777.2128	-0.72568	2.1175	0.24776	0.67677	0.33292	2.9123	-0.0592	0.0182	-0.0073	-0.0462	0.0165	0.9585
8.8082	9.4376	727.8572	68.5862	-239.5968	-63.7406	764.5054	-1.7478	1.9389	-0.77455	0.86984	1.1491	1.8888	-0.0592	0.0182	-0.0073	-0.0462	0.0165	0.9585
8.8219	10.7878	721.9602	66.6039	-237.2368	-60.7072	754.8342	-2.3726	1.8627	-1.3318	0.98602	1.6328	1.3625	-0.0592	0.0182	-0.0073	-0.0462	0.0165	0.9585
8.8355	12.6597	719.3346	64.8405	-236.0303	-57.7435	748.602	-2.7061	1.7718	-1.5638	1.0122	1.875	1.084	-0.0592	0.0182	-0.0073	-0.0462	0.0165	0.9585
8.8491	14.9519	720.196	63.4149	-236.0455	-55.0034	745.9702	-2.7968	1.5204	-1.5916	0.92324	1.9457	0.77064	-0.0592	0.0182	-0.0073	-0.0462	0.0165	0.9585
8.8628	17.5708	724.4722	62.3658	-237.2418	-52.5612	746.8221	-2.7642	1.0376	-1.511	0.70982	1.927	0.2662	-0.0592	0.0182	-0.0073	-0.0462	0.0165	0.9585
8.8764	20.4391	731.7286	61.7455	-239.4465	-50.4981	750.6809	-2.7009	0.24773	-1.3894	0.35893	1.8842	-0.57654	-0.0592	0.0182	-0.0073	-0.0462	0.0165	0.9585
8.8901	23.467	741.1808	61.5521	-242.3644	-48.8459	756.7531	-2.6641	-0.90344	-1.2645	-0.14062	1.8519	-1.8406	-0.0592	0.0182	-0.0073	-0.0462	0.0165	0.9585
8.9037	26.5701	751.7496	61.7789	-245.604	-47.6325	763.9633	-2.6374	-2.441	-1.1533	-0.79185	1.824	-3.5631	-0.0592	0.0182	-0.0073	-0.0462	0.0165	0.9585
8.9174	29.6431	762.1941	62.3857	-248.7254	-46.8548	771.1056	-2.5342	-4.3406	-1.0466	-1.5779	1.7496	-5.7368	-0.0592	0.0182	-0.0073	-0.0462	0.0165	0.9585
8.931	32.6161	771.2677	63.3068	-251.2946	-46.4762	776.9813	-2.2529	-6.4418	-0.92418	-2.4326	1.556	-8.1746	-0.0592	0.0182	-0.0073	-0.0462	0.0165	0.9585
8.9446	35.4037	777.7907	64.464	-252.9118	-46.4488	780.4597	-1.5971	-8.3959	-0.74334	-3.2156	1.1206	-10.4715	-0.0592	0.0182	-0.0073	-0.0462	0.0165	0.9585
8.9583	37.908	780.7938	65.7764	-253.2606	-46.7279	780.632	-0.35087	-9.5589	-0.46223	-3.6733	0.31098	-11.8471	-0.0592	0.0182	-0.0073	-0.0462	0.0165	0.9585
8.9719	40.0649	779.6776	67.1718	-252.1596	-47.2655	776.9463	1.7206	-8.9707	-0.031343	-3.4222	-1.0162	-11.1444	-0.0592	0.0182	-0.0073	-0.0462	0.0165	0.9585
8.9856	41.8318	774.3256	68.5636	-249.5968	-47.9917	769.3336	4.822	-5.2839	0.58624	-1.9272	-2.9747	-6.7495	-0.0592	0.0182	-0.0073	-0.0462	0.0165	0.9585
8.9992	43.2279	765.0394	69.8478	-245.7047	-48.7983	758.1139	9.034	3.2238	1.4137	1.4904	-5.6117	3.4047	-0.0592	0.0182	-0.0073	-0.0462	0.0165	0.9585
9.0129	44.3185	752.353	70.9069	-240.6918	-49.5465	743.814	14.2331	18.4468	2.4222	7.5798	-8.8278	21.5881	-0.0592	0.0182	-0.0073	-0.0462	0.0165	0.9585
9.0265	45.1973	736.8109	71.592	-234.7685	-50.0597	726.9689	19.8944	42.1651	3.5116	17.0388	-12.2834	49.9546	-0.0592	0.0182	-0.0073	-0.0462	0.0165	0.9585
9.0401	45.9357	718.6518	71.7233	-228.0505	-50.135	707.8127	24.9457	75.4674	4.4595	30.2848	-15.2856	89.8215	-0.0592	0.0182	-0.0073	-0.0462	0.0165	0.9585
9.0538	46.5296	697.6148	71.0729	-220.4918	-49.5495	686.1017	27.5755	117.9061	4.8856	47.1194	-16.6763	140.668	-0.0592	0.0182	-0.0073	-0.0462	0.0165	0.9585
9.0674	46.9001	672.908	69.3759	-211.8816	-48.0719	661.0626	25.4134	166.6104	4.247	66.3804	-14.913	199.0771	-0.0592	0.0182	-0.0073	-0.0462	0.0165	0.9585
9.0811	46.8955	643.4948	66.4151	-201.9343	-45.5454	631.691	17.7582	217.1205	1.873	86.2543	-8.9978	259.773	-0.0592	0.0182	-0.0073	-0.0462	0.0165	0.9585
